<?xml version="1.0" standalone="no"?>
<!DOCTYPE svg PUBLIC "-//W3C//DTD SVG 20010904//EN"
 "http://www.w3.org/TR/2001/REC-SVG-20010904/DTD/svg10.dtd">
<svg version="1.0" xmlns="http://www.w3.org/2000/svg"
 width="512.000000pt" height="512.000000pt" viewBox="0 0 512.000000 512.000000"
 preserveAspectRatio="xMidYMid meet">
<metadata>
Created by potrace 1.16, written by Peter Selinger 2001-2019
</metadata>
<g transform="translate(0.000000,512.000000) scale(0.100000,-0.100000)"
fill="#000000" stroke="none">
<path d="M62 5073 c-43 -102 -55 -280 -26 -423 8 -41 18 -141 23 -222 11 -176
28 -272 81 -455 40 -138 48 -214 30 -288 l-7 -30 -10 25 c-32 76 -74 262 -88
382 -9 76 -22 156 -28 179 -10 36 -12 22 -9 -102 3 -132 2 -142 -12 -124 -25
32 -20 -5 8 -62 13 -26 27 -61 31 -78 l7 -30 -24 23 c-14 12 -27 22 -31 22
-16 0 -5 -28 19 -51 29 -26 50 -69 59 -120 3 -18 8 -36 11 -41 7 -11 25 -72
20 -67 -16 16 -95 129 -90 129 3 0 14 -5 26 -11 11 -6 22 -8 25 -6 3 3 -13 15
-36 27 l-41 20 0 -28 c0 -16 10 -42 22 -57 l21 -27 -21 6 c-16 6 -22 3 -22 -8
0 -9 5 -16 10 -16 6 0 31 -19 56 -42 77 -71 112 -159 133 -338 23 -194 20
-182 44 -178 21 3 22 8 20 93 -1 50 -11 137 -23 195 -28 137 -36 300 -18 360
13 44 15 45 63 53 28 4 97 16 155 27 178 34 238 25 293 -42 19 -23 19 -22 1
11 -44 80 -121 98 -264 61 -46 -12 -116 -24 -155 -26 -70 -5 -70 -5 -48 14 17
15 43 20 130 25 119 6 193 27 307 84 104 53 238 145 309 215 34 33 53 54 42
45 -71 -55 -230 -151 -293 -178 -99 -41 -203 -62 -276 -56 -81 7 -89 21 -19
36 111 25 249 73 331 117 354 186 622 592 622 942 0 45 -4 62 -14 62 -10 0
-14 -27 -19 -109 -4 -84 -12 -129 -36 -200 -98 -293 -369 -584 -653 -703 -79
-33 -295 -95 -303 -86 -2 1 9 21 23 43 23 34 51 52 188 120 194 97 317 180
442 300 157 150 221 258 248 422 7 45 19 94 27 110 8 15 22 45 31 66 13 33 14
38 1 35 -8 -2 -39 -52 -68 -113 -101 -209 -118 -236 -212 -330 -49 -50 -128
-116 -175 -147 -81 -53 -288 -163 -295 -156 -2 2 20 48 48 102 l52 99 88 38
c90 39 192 105 237 154 14 16 -3 6 -41 -23 -91 -68 -269 -149 -269 -122 0 4
15 30 33 56 31 48 55 64 156 108 108 46 241 173 312 296 15 26 15 28 2 10
-115 -159 -276 -286 -396 -314 -25 -6 -27 -5 -18 12 5 10 47 48 92 83 126 99
131 105 32 39 -86 -56 -92 -58 -82 -33 16 42 26 51 113 92 47 22 102 58 131
85 l50 47 -60 -45 c-55 -41 -181 -103 -191 -93 -13 13 51 65 135 107 112 57
108 65 -8 16 l-80 -34 14 29 c19 36 19 39 -5 39 -24 0 -38 -22 -156 -245 -92
-173 -88 -172 -68 -25 3 26 2 30 -5 15 -4 -11 -14 -60 -20 -110 -13 -93 -57
-212 -118 -313 l-28 -47 -3 35 c-6 71 158 503 178 469 4 -6 10 3 14 23 3 18
33 70 66 116 55 77 58 82 35 82 -22 0 -53 -29 -124 -120 l-19 -25 13 65 c18
82 18 80 0 80 -8 0 -15 -2 -15 -5 0 -23 -46 -216 -67 -280 -14 -43 -41 -131
-59 -195 l-32 -115 -1 136 c-1 122 1 141 24 200 15 36 28 92 30 129 l4 65 -10
-65 c-5 -36 -24 -96 -43 -135 l-32 -70 2 150 3 150 -15 -170 c-9 -112 -22
-198 -38 -255 -42 -146 -85 -334 -96 -426 -12 -93 -32 -168 -53 -195 -10 -13
-13 7 -15 104 -1 67 -6 157 -12 201 -16 131 -13 241 9 284 30 59 49 124 86
288 19 83 37 164 41 178 5 20 2 26 -9 26 -12 0 -24 -39 -52 -157 -20 -87 -52
-205 -72 -263 -39 -113 -39 -103 -18 -410 l5 -75 -24 60 c-35 87 -49 184 -44
300 6 114 -8 87 -18 -36 -8 -93 7 -183 48 -298 25 -68 31 -102 31 -166 1 -44
-4 -89 -10 -100 -11 -18 -12 -18 -18 10 -3 17 -28 102 -55 190 -77 253 -84
283 -83 375 2 159 71 354 180 508 36 51 41 62 26 62 -25 0 -120 -144 -162
-245 -18 -43 -43 -123 -55 -179 l-23 -100 -11 77 c-23 151 -10 299 33 395 22
48 23 52 6 52 -13 0 -25 -16 -39 -47z m1208 -218 c-23 -88 -51 -142 -122 -233
-123 -154 -395 -348 -608 -432 -28 -11 -50 -17 -50 -14 0 14 52 92 78 117 15
15 83 56 151 92 287 153 449 303 538 496 15 32 28 57 30 55 2 -1 -6 -38 -17
-81z m-745 -313 l0 -208 -43 -65 -43 -64 4 140 c2 77 10 158 17 180 l13 40 9
-32 c5 -18 10 -33 12 -33 2 0 1 31 -2 69 -3 49 0 85 13 125 10 31 18 56 19 56
0 0 1 -94 1 -208z m-379 -287 c57 -194 77 -290 68 -329 -5 -25 -8 -27 -16 -12
-18 31 -69 190 -83 256 -13 62 -30 276 -20 255 2 -5 25 -82 51 -170z m259
-112 c-15 -27 -16 -25 -10 42 3 39 9 95 13 125 6 51 7 48 10 -42 2 -75 -1
-104 -13 -125z m250 -198 c-101 -46 -150 -58 -257 -63 -60 -2 -108 -1 -108 3
0 4 10 23 21 42 18 30 26 34 48 28 62 -15 226 -16 276 -1 71 20 78 18 20 -9z"/>
<path d="M4450 5081 c-60 -49 -169 -97 -330 -145 -177 -54 -299 -110 -449
-209 -138 -91 -208 -145 -304 -235 -48 -44 -106 -86 -149 -108 -281 -141 -555
-399 -719 -674 -87 -147 -153 -360 -165 -530 -9 -129 12 -239 82 -436 146
-412 178 -508 206 -623 39 -159 41 -229 9 -296 l-23 -50 -23 65 c-26 78 -59
143 -133 269 -114 194 -248 503 -296 681 -47 176 -59 265 -53 395 l5 120 -20
-75 c-35 -135 -9 -358 83 -723 46 -184 91 -297 187 -471 95 -171 132 -257 133
-309 0 -18 5 -41 10 -52 6 -14 8 1 5 48 -4 75 -36 147 -161 367 -81 143 -116
233 -148 380 -42 190 -40 192 22 27 69 -183 116 -283 197 -417 79 -132 141
-257 154 -311 11 -42 9 -52 -28 -150 -83 -220 -95 -249 -102 -249 -3 0 -14 41
-23 90 -37 190 -111 367 -281 674 -46 83 -101 192 -121 241 l-38 90 6 160 c5
152 28 320 62 464 22 91 11 87 -19 -6 -60 -193 -93 -473 -77 -658 14 -151 57
-475 76 -566 44 -208 112 -359 233 -514 54 -69 97 -143 89 -151 -2 -3 -17 12
-33 33 -15 20 -101 109 -189 198 -179 179 -244 259 -274 340 -50 134 -89 415
-98 702 -6 209 1 286 44 433 37 131 140 382 182 448 46 70 80 96 157 120 32 9
60 24 62 31 6 19 -112 7 -236 -24 -166 -43 -303 -129 -486 -305 -269 -260
-467 -599 -531 -907 -39 -187 -37 -371 6 -508 46 -150 125 -272 269 -415 105
-105 222 -189 375 -267 125 -64 189 -83 280 -83 88 0 148 17 288 82 123 57
151 58 118 3 -117 -199 -535 -657 -779 -852 -86 -70 -113 -86 -174 -103 -120
-35 -211 -69 -253 -95 -39 -24 -39 -24 -12 -25 15 0 49 11 76 24 26 14 85 37
132 52 46 14 101 35 122 46 21 11 44 17 50 15 6 -2 -41 -29 -104 -61 -63 -32
-118 -62 -124 -67 -18 -18 15 -9 67 17 l52 26 -17 -26 c-17 -26 -17 -26 8 -26
17 0 29 9 40 30 8 16 71 74 139 129 253 204 417 365 668 658 156 181 209 233
236 233 23 0 76 -33 142 -90 131 -113 255 -170 465 -215 61 -13 120 -27 133
-30 54 -17 5 49 -80 106 -33 23 -112 66 -177 96 -97 46 -261 151 -261 168 0 3
17 -2 38 -11 70 -31 197 -65 283 -77 94 -12 93 -12 318 57 46 15 118 33 160
41 l76 14 -100 -4 c-55 -3 -125 -11 -155 -19 -78 -22 -74 -11 7 15 62 21 84
23 239 21 163 -2 175 -1 245 24 182 66 354 211 492 417 50 75 157 275 157 294
0 4 -29 -42 -64 -104 -153 -270 -319 -449 -505 -543 -108 -54 -158 -63 -315
-56 -157 8 -210 -1 -323 -54 -69 -32 -80 -43 -31 -33 49 10 26 -13 -34 -33
-98 -32 -252 -9 -463 70 -100 38 -149 43 -210 21 l-20 -7 20 17 c57 48 300
140 345 132 14 -3 55 -16 91 -30 147 -56 321 -72 476 -42 43 8 119 20 168 25
119 14 223 43 320 90 84 40 169 101 179 126 3 9 -13 -1 -37 -21 -92 -79 -300
-157 -454 -171 l-78 -7 28 22 c15 13 32 32 39 44 9 17 4 15 -24 -9 -77 -67
-248 -102 -409 -84 -69 8 -201 39 -274 64 -19 7 49 28 185 57 74 17 194 47
267 69 72 21 214 55 315 75 218 42 409 95 487 135 65 32 114 78 142 132 28 55
23 58 -10 7 -58 -92 -128 -117 -371 -130 -224 -12 -432 -41 -543 -75 -45 -14
-158 -64 -252 -109 -101 -50 -227 -103 -310 -129 -77 -26 -171 -62 -209 -81
-38 -19 -71 -34 -72 -32 -1 1 20 47 47 102 31 64 63 113 87 135 47 42 185 125
427 256 216 116 303 168 414 246 339 240 645 545 783 781 57 98 84 168 128
337 35 133 52 183 104 303 24 55 1 45 -39 -18 -22 -34 -59 -126 -99 -247 -63
-193 -106 -290 -171 -392 -58 -91 -155 -207 -255 -305 -233 -229 -438 -378
-830 -601 -203 -115 -250 -145 -367 -232 -51 -37 -93 -63 -93 -58 0 19 59 163
88 214 35 63 57 79 167 117 125 43 193 77 315 157 208 136 466 364 602 535 78
96 193 257 184 257 -2 0 -51 -57 -109 -127 -183 -225 -511 -508 -763 -658 -79
-48 -275 -135 -301 -135 -20 0 50 55 179 141 263 174 632 437 693 494 l60 56
-80 -63 c-90 -71 -452 -321 -655 -453 -74 -48 -152 -101 -174 -118 -38 -30
-38 -30 -31 -6 24 81 168 303 231 357 25 21 114 74 197 117 203 105 316 173
537 324 243 166 252 172 356 224 130 66 169 97 204 167 40 78 38 100 -2 31
-46 -80 -97 -125 -190 -172 -46 -23 -184 -105 -308 -182 -124 -78 -268 -165
-320 -195 -101 -57 -441 -224 -446 -219 -2 2 51 82 117 179 l120 177 72 27
c151 57 235 108 412 249 50 40 119 100 155 135 72 69 65 65 -61 -37 -130 -105
-286 -217 -359 -256 -55 -30 -155 -67 -181 -67 -9 0 55 117 79 144 9 10 81 61
159 112 78 52 170 120 205 152 35 32 99 87 143 124 125 102 230 219 315 349
80 123 165 277 157 285 -2 2 -30 -37 -62 -88 -139 -221 -232 -336 -370 -459
-77 -69 -441 -346 -483 -368 -74 -39 -72 -43 -37 60 30 88 57 131 129 203 74
74 117 101 291 189 83 41 161 84 175 95 17 14 2 10 -45 -13 -38 -19 -118 -57
-177 -84 -122 -56 -180 -94 -257 -166 -44 -40 -50 -43 -30 -17 58 81 143 136
384 247 114 52 188 105 236 167 l33 43 -49 -45 c-78 -72 -134 -106 -270 -165
-147 -64 -217 -107 -293 -178 -36 -34 -53 -45 -49 -32 3 11 11 49 17 85 19
111 88 185 227 246 87 38 85 45 -4 13 -66 -25 -101 -47 -157 -98 l-39 -36 32
46 c58 83 144 136 314 196 56 19 115 42 132 50 106 55 259 186 300 258 24 42
60 154 52 162 -6 5 -32 -68 -29 -80 1 -5 -2 -6 -6 -3 -5 3 -18 -4 -28 -16 -11
-11 -77 -65 -149 -118 -117 -88 -199 -160 -183 -160 4 0 46 34 95 76 48 41
112 91 142 111 29 19 69 50 89 67 l36 31 -30 -54 c-53 -99 -228 -228 -393
-291 -201 -77 -273 -120 -344 -208 l-29 -37 7 45 c4 25 18 79 31 120 29 94 54
119 234 236 74 48 171 115 215 148 99 75 284 253 309 298 15 26 5 20 -50 -34
-52 -50 -100 -83 -194 -133 -191 -102 -278 -165 -376 -268 l-87 -92 34 65 c57
109 135 182 262 247 242 124 382 271 401 423 l6 45 -14 -45 c-46 -158 -213
-319 -430 -415 l-58 -26 23 38 c46 76 76 108 174 186 200 159 225 191 45 56
-66 -49 -122 -89 -125 -89 -3 0 13 35 34 79 28 56 58 95 102 137 119 112 137
133 198 221 62 91 160 207 168 199 2 -2 -7 -40 -20 -83 -51 -159 -58 -337 -32
-768 8 -132 15 -247 15 -255 0 -11 2 -12 13 -1 9 9 11 61 8 214 -9 421 -6 710
7 767 21 85 54 183 70 208 20 30 4 28 -38 -7z m-153 -149 c-29 -27 -80 -64
-113 -82 -116 -67 -176 -149 -249 -340 -20 -52 -50 -119 -67 -150 -27 -47
-124 -186 -149 -214 -4 -5 8 40 26 100 19 59 46 159 60 222 14 62 39 141 56
174 17 33 25 57 19 53 -22 -14 -61 -109 -85 -208 -35 -147 -97 -325 -139 -401
-20 -36 -39 -66 -42 -66 -3 0 0 9 6 21 7 11 10 23 8 25 -3 2 -12 -12 -21 -32
-12 -23 -13 -33 -5 -28 10 6 9 3 0 -9 -8 -9 -29 -56 -47 -103 l-32 -87 -14 89
c-22 141 -17 370 9 478 12 49 20 91 18 93 -9 9 -47 -112 -61 -194 -19 -107
-19 -178 0 -318 20 -148 18 -210 -9 -340 l-23 -110 -7 85 c-8 94 -43 455 -50
510 -7 65 5 -215 15 -314 5 -54 12 -162 16 -241 5 -120 3 -153 -13 -216 -15
-58 -19 -68 -22 -44 -2 17 -23 123 -47 237 -24 114 -49 256 -55 315 -15 145
-21 152 -15 18 5 -119 18 -201 66 -423 37 -169 36 -233 -4 -352 -20 -60 -25
-69 -26 -43 -1 17 -21 111 -46 207 -57 219 -74 330 -81 521 -7 177 12 348 52
477 23 71 34 90 88 146 91 96 446 359 558 414 51 25 170 71 263 102 94 31 177
61 185 66 37 24 26 6 -23 -38z m-82 -119 c-37 -57 -116 -149 -165 -191 -27
-24 -50 -40 -50 -36 0 3 14 33 32 66 38 71 100 138 154 167 50 26 49 26 29 -6z
m-1021 -538 c-29 -70 -54 -203 -64 -340 -7 -90 -19 -165 -33 -210 -19 -61 -22
-91 -21 -225 1 -85 9 -209 18 -275 20 -148 21 -361 1 -480 -8 -49 -13 -91 -11
-93 2 -1 12 30 22 70 20 78 26 296 12 453 l-7 80 15 -45 c9 -25 24 -83 34
-130 11 -50 19 -72 19 -53 1 17 -17 102 -39 187 -58 225 -69 390 -33 485 8 20
11 10 17 -55 10 -115 31 -205 88 -387 45 -142 51 -173 52 -252 1 -83 -2 -95
-32 -152 -37 -73 -213 -345 -218 -340 -3 2 3 39 12 83 25 118 15 310 -21 429
-112 369 -139 514 -133 709 4 108 10 146 33 216 54 166 100 231 224 312 40 26
75 48 77 48 2 0 -4 -16 -12 -35z m937 -33 c-114 -96 -187 -150 -323 -242 -82
-54 -148 -95 -148 -91 0 19 144 152 215 198 73 47 283 170 295 172 3 0 -15
-16 -39 -37z m-1216 -184 c-54 -116 -62 -151 -101 -495 -20 -181 -12 -277 36
-438 48 -157 61 -351 28 -392 -7 -9 -7 -13 0 -13 16 0 32 67 32 136 0 76 -14
150 -52 284 -33 116 -47 281 -33 386 l8 59 13 -111 c19 -161 45 -278 105 -459
45 -141 52 -173 57 -266 3 -85 0 -121 -17 -190 -21 -87 -84 -223 -146 -319
l-36 -55 5 45 c15 125 17 226 7 330 -14 137 -25 183 -96 400 -35 108 -56 191
-61 241 -13 145 29 333 111 501 l36 73 -30 -35 c-57 -67 -125 -230 -147 -355
-4 -22 -17 -71 -30 -109 -57 -167 -53 -290 17 -525 55 -186 79 -336 86 -527 8
-229 -13 -338 -31 -164 -13 115 -83 362 -166 586 -45 120 -90 255 -101 299
-59 246 25 567 219 839 46 64 305 346 318 346 2 0 -12 -33 -31 -72z m-915
-655 c-65 -74 -181 -325 -235 -507 l-24 -81 6 100 c12 229 46 374 105 450 l31
40 -38 -35 c-98 -91 -146 -319 -146 -705 -1 -247 56 -763 96 -879 22 -63 19
-62 -44 11 -146 170 -246 348 -321 572 -93 280 -108 401 -66 546 4 11 -3 2
-13 -20 -11 -22 -25 -70 -32 -107 -10 -57 -10 -81 4 -150 40 -201 106 -392
198 -566 32 -63 55 -112 50 -110 -20 7 -118 131 -188 235 -79 119 -137 245
-154 340 -15 77 -5 206 21 275 59 158 324 437 521 547 65 36 213 91 247 91 22
0 21 -3 -18 -47z m1107 -125 c-3 -8 -6 -5 -6 6 -1 11 2 17 5 13 3 -3 4 -12 1
-19z m-492 -51 c-10 -53 13 -186 51 -299 80 -237 110 -430 102 -671 -3 -99
-10 -153 -21 -177 -15 -34 -15 -33 -16 76 -2 225 -30 394 -107 649 -45 151
-55 267 -30 379 17 74 33 108 21 43z m1125 -21 c0 -7 -123 -102 -170 -131 -65
-40 -37 -14 71 65 100 73 99 72 99 66z m-2550 -511 c-28 -236 99 -489 388
-772 80 -79 143 -145 140 -149 -15 -15 -220 143 -317 244 -68 71 -65 61 7 -26
53 -64 171 -163 307 -259 55 -39 154 -120 220 -179 145 -131 325 -305 325
-315 0 -8 -338 161 -382 192 -88 62 -170 136 -243 219 -44 50 -93 106 -109
123 l-28 32 28 -40 c77 -110 196 -243 268 -301 55 -44 140 -95 266 -159 168
-86 250 -138 238 -151 -3 -2 -26 5 -51 16 -25 11 -99 34 -164 51 -65 17 -136
40 -158 51 -22 12 -85 66 -141 122 -55 55 -146 143 -203 195 -106 97 -190 194
-256 294 -21 31 -40 57 -42 57 -2 0 8 -23 24 -50 53 -96 157 -225 257 -320 56
-52 141 -136 191 -185 134 -135 145 -142 287 -176 133 -32 208 -57 208 -69 0
-4 -12 -11 -27 -15 -16 -3 -71 -26 -124 -50 -113 -52 -206 -70 -282 -56 -73
13 -90 21 -223 100 -155 92 -159 94 -94 70 77 -29 200 -36 273 -15 66 19 92
44 31 30 -74 -17 -223 -9 -287 16 -124 47 -298 189 -395 321 -47 66 -103 173
-126 244 -72 225 -11 586 150 888 26 48 48 86 49 85 1 -2 -1 -30 -5 -63z m974
-674 c137 -237 187 -368 226 -581 19 -107 19 -117 4 -162 -8 -26 -19 -48 -23
-48 -4 0 -13 12 -20 28 -7 15 -43 70 -80 122 -38 52 -80 115 -94 140 -42 74
-94 244 -126 418 -28 150 -62 376 -60 405 0 7 22 -33 48 -88 26 -55 83 -160
125 -234z m866 319 c-8 -6 -24 -16 -35 -22 -20 -11 -20 -11 -1 11 11 11 26 21
35 21 14 0 14 -2 1 -10z m290 -434 c0 -7 -158 -100 -265 -155 -132 -69 -106
-51 95 64 179 102 170 97 170 91z m499 -351 c-3 -2 -96 -23 -206 -45 -111 -22
-257 -56 -325 -76 -148 -43 -289 -77 -294 -71 -6 6 165 85 243 111 94 32 211
56 353 71 119 13 237 18 229 10z m-1216 -485 c23 -17 67 -51 97 -76 30 -24
102 -67 160 -95 133 -64 233 -119 227 -126 -9 -8 -149 24 -218 50 -137 52
-220 104 -347 219 -29 25 -52 48 -52 51 0 10 34 16 63 11 15 -2 47 -17 70 -34z"/>
<path d="M3765 4567 c-30 -68 -79 -226 -73 -233 3 -3 28 61 55 141 27 80 48
145 46 145 -2 0 -15 -24 -28 -53z"/>
<path d="M3592 4300 c0 -14 2 -19 5 -12 2 6 2 18 0 25 -3 6 -5 1 -5 -13z"/>
<path d="M3582 4220 c0 -19 2 -27 5 -17 2 9 2 25 0 35 -3 9 -5 1 -5 -18z"/>
<path d="M3574 4080 c0 -52 1 -74 3 -47 2 26 2 68 0 95 -2 26 -3 4 -3 -48z"/>
<path d="M3181 2954 c0 -11 3 -14 6 -6 3 7 2 16 -1 19 -3 4 -6 -2 -5 -13z"/>
<path d="M1011 2179 c-4 -196 105 -498 237 -655 88 -105 218 -187 332 -208 26
-5 21 -1 -23 18 -254 107 -405 317 -503 699 -14 56 -30 125 -34 152 l-8 50 -1
-56z"/>
<path d="M1060 2104 c0 -24 34 -123 62 -179 113 -224 368 -499 513 -551 11 -4
-16 20 -60 53 -181 138 -390 403 -481 611 -19 42 -34 72 -34 66z"/>
<path d="M1628 1303 c7 -3 16 -2 19 1 4 3 -2 6 -13 5 -11 0 -14 -3 -6 -6z"/>
<path d="M1967 1097 c-48 -25 -69 -30 -130 -31 -39 -1 -85 2 -102 6 -28 7 -27
6 5 -8 75 -34 206 -16 263 36 39 36 37 36 -36 -3z"/>
<path d="M2150 1790 c13 -24 44 -79 71 -121 26 -42 68 -118 94 -169 25 -51 49
-90 52 -86 9 9 -81 184 -153 296 -76 120 -96 145 -64 80z"/>
<path d="M4336 4804 c-4 -14 -5 -28 -3 -31 3 -2 8 8 11 23 4 14 5 28 3 31 -3
2 -8 -8 -11 -23z"/>
<path d="M241 4784 c0 -11 3 -14 6 -6 3 7 2 16 -1 19 -3 4 -6 -2 -5 -13z"/>
<path d="M4311 4704 c0 -11 3 -14 6 -6 3 7 2 16 -1 19 -3 4 -6 -2 -5 -13z"/>
<path d="M221 4694 c0 -11 3 -14 6 -6 3 7 2 16 -1 19 -3 4 -6 -2 -5 -13z"/>
<path d="M4190 4649 c-71 -78 -74 -82 -22 -34 39 35 89 95 80 95 -2 0 -28 -27
-58 -61z"/>
<path d="M4270 4184 c-25 -20 -128 -91 -230 -158 -102 -67 -210 -146 -240
-175 l-55 -52 77 55 c42 31 137 96 211 145 160 107 308 222 285 221 -2 0 -23
-16 -48 -36z"/>
<path d="M4402 3750 c0 -14 2 -19 5 -12 2 6 2 18 0 25 -3 6 -5 1 -5 -13z"/>
<path d="M4378 3647 c-26 -107 -86 -219 -183 -340 -104 -129 -352 -387 -412
-429 -24 -16 -41 -33 -38 -37 2 -5 -5 -17 -18 -27 l-22 -19 19 23 c11 12 16
22 13 22 -4 0 -61 -40 -127 -90 -142 -105 -222 -153 -387 -232 -68 -32 -123
-60 -123 -63 0 -10 263 96 369 149 128 65 249 155 389 291 246 237 413 440
477 580 34 73 70 200 64 228 -2 9 -12 -16 -21 -56z m-678 -851 c0 -2 -8 -10
-17 -17 -16 -13 -17 -12 -4 4 13 16 21 21 21 13z m-40 -30 c0 -2 -8 -10 -17
-17 -16 -13 -17 -12 -4 4 13 16 21 21 21 13z"/>
<path d="M2196 3290 c16 -64 121 -297 130 -288 3 4 -79 194 -124 288 l-12 25
6 -25z"/>
<path d="M2326 2731 c8 -107 43 -234 111 -406 33 -82 68 -183 77 -222 20 -80
31 -97 21 -30 -11 71 -34 146 -91 290 -59 150 -89 250 -110 367 l-13 75 5 -74z"/>
<path d="M4152 2584 c-16 -19 -55 -83 -87 -142 -136 -254 -269 -405 -521 -594
-189 -142 -236 -172 -399 -263 -77 -42 -146 -83 -154 -91 -8 -7 34 6 95 31 60
24 181 65 269 90 88 26 250 75 360 110 110 35 263 83 340 105 184 54 304 113
390 192 37 34 63 64 57 66 -6 2 -49 -15 -96 -37 -115 -55 -222 -79 -407 -90
-138 -9 -217 -24 -304 -56 -11 -4 -4 5 15 20 78 62 224 220 276 300 47 73 210
395 199 395 -2 0 -17 -16 -33 -36z m188 -599 c0 -7 -85 -48 -161 -78 -37 -15
-147 -50 -245 -78 -98 -28 -235 -71 -304 -96 -157 -58 -281 -96 -287 -89 -8 8
207 144 312 196 117 58 186 75 380 89 130 10 214 25 275 50 31 12 30 12 30 6z"/>
<path d="M5069 1591 c-42 -27 -181 -161 -167 -161 4 0 35 25 70 56 35 30 82
67 106 81 23 14 42 31 42 39 0 18 1 19 -51 -15z"/>
<path d="M5060 1494 c-40 -39 -88 -71 -175 -116 -104 -53 -131 -73 -205 -147
-68 -69 -97 -108 -145 -196 -33 -60 -90 -146 -127 -190 -62 -74 -81 -108 -41
-73 10 9 68 46 128 84 212 131 225 134 333 82 57 -28 78 -33 142 -33 78 0 150
24 150 50 0 9 -18 5 -62 -12 -77 -31 -119 -28 -219 18 -118 54 -151 47 -334
-73 l-90 -59 55 52 c101 94 315 229 365 229 8 0 15 4 15 8 0 8 151 83 233 116
43 18 54 52 12 42 -31 -8 -31 -1 0 49 13 22 24 49 25 60 0 17 -4 16 -24 -10
-14 -16 -36 -53 -50 -81 -19 -38 -34 -55 -56 -62 -33 -12 -39 -2 -14 22 8 9
13 16 9 16 -11 0 25 60 72 117 69 87 72 95 8 28 -31 -33 -75 -96 -98 -140 -30
-56 -52 -85 -75 -98 -18 -11 -35 -17 -39 -14 -8 9 28 97 63 153 18 28 58 72
91 97 77 59 116 101 111 121 -2 10 -19 -1 -58 -40z m-170 -162 c-84 -69 -158
-150 -183 -198 -27 -54 -45 -71 -126 -128 l-53 -38 33 59 c92 163 173 249 293
309 38 18 71 34 75 33 3 0 -14 -17 -39 -37z m-56 -119 c-29 -67 -38 -80 -71
-95 -21 -9 -39 -15 -41 -13 -8 8 43 82 92 133 28 28 51 52 52 52 1 0 -13 -35
-32 -77z"/>
<path d="M3829 1476 c-9 -9 -176 -49 -279 -67 l-105 -19 78 6 c81 5 236 40
297 67 19 8 30 16 24 16 -6 1 -13 -1 -15 -3z"/>
<path d="M2870 1400 c-8 -5 -10 -10 -5 -10 6 0 17 5 25 10 8 5 11 10 5 10 -5
0 -17 -5 -25 -10z"/>
<path d="M3240 1349 c14 -6 90 -13 170 -14 l145 -3 -135 7 c-74 5 -151 11
-170 15 -32 5 -33 5 -10 -5z"/>
<path d="M5045 1170 c28 -12 75 -12 75 0 0 6 -21 10 -47 9 -36 0 -43 -3 -28
-9z"/>
<path d="M4866 1111 c-6 -10 43 -46 51 -38 3 3 -8 12 -24 21 -15 8 -23 15 -18
16 17 0 56 -31 50 -40 -12 -19 54 -40 125 -40 90 0 91 17 1 22 -60 3 -73 7
-105 36 -36 31 -69 41 -80 23z"/>
<path d="M4793 1063 c9 -2 23 -2 30 0 6 3 -1 5 -18 5 -16 0 -22 -2 -12 -5z"/>
<path d="M4841 1057 c2 -1 27 -20 54 -41 l50 -38 -44 41 c-24 23 -48 41 -54
41 -6 0 -8 -1 -6 -3z"/>
<path d="M998 215 c-99 -25 -208 -87 -295 -169 -38 -35 -41 -46 -12 -46 12 0
47 24 80 54 141 131 379 189 512 126 50 -24 37 -5 -16 22 -54 28 -186 34 -269
13z"/>
<path d="M934 130 c-76 -38 -188 -120 -165 -120 7 0 36 18 66 41 30 23 90 59
132 80 43 21 70 39 61 39 -8 0 -51 -18 -94 -40z"/>
<path d="M1156 162 c-3 -5 -36 -24 -73 -42 -104 -51 -201 -114 -181 -118 10
-2 37 10 60 26 24 15 72 45 108 64 57 32 115 78 97 78 -3 0 -8 -4 -11 -8z"/>
</g>
</svg>