<?xml version="1.0" standalone="no"?>
<!DOCTYPE svg PUBLIC "-//W3C//DTD SVG 20010904//EN"
 "http://www.w3.org/TR/2001/REC-SVG-20010904/DTD/svg10.dtd">
<svg version="1.0" xmlns="http://www.w3.org/2000/svg"
 width="512.000000pt" height="512.000000pt" viewBox="0 0 512.000000 512.000000"
 preserveAspectRatio="xMidYMid meet">
<metadata>
Created by potrace 1.16, written by Peter Selinger 2001-2019
</metadata>
<g transform="translate(0.000000,512.000000) scale(0.100000,-0.100000)"
fill="#000000" stroke="none">
<path d="M3482 4585 c-185 -34 -343 -105 -587 -265 -93 -61 -222 -138 -285
-170 -185 -95 -256 -162 -412 -387 -46 -67 -155 -208 -242 -313 -251 -303
-386 -489 -468 -646 -35 -67 -198 -439 -198 -452 0 -17 33 47 94 183 138 307
282 524 594 898 133 159 213 264 275 357 59 90 144 187 204 235 32 24 114 75
183 112 69 36 202 118 295 182 224 151 354 211 540 246 84 17 455 33 443 20
-4 -4 -73 -16 -155 -26 -335 -43 -515 -101 -720 -234 -172 -112 -277 -206
-383 -345 -19 -25 -63 -79 -99 -120 -184 -213 -240 -370 -263 -736 -12 -206
-2 -443 27 -634 22 -143 20 -168 -19 -233 -19 -32 -45 -78 -57 -102 -12 -25
-26 -45 -29 -45 -12 0 -38 110 -50 210 -6 52 -28 167 -48 255 -33 144 -36 174
-36 300 1 121 5 152 27 225 14 47 24 86 22 88 -8 9 -55 -163 -66 -243 -14
-100 -5 -189 36 -372 13 -60 31 -169 40 -243 8 -74 19 -157 24 -185 19 -104
20 -115 11 -115 -6 0 -10 10 -10 23 -1 15 -8 5 -23 -30 -25 -57 -37 -74 -37
-52 0 8 -29 107 -64 219 -77 247 -86 290 -87 439 -1 96 -3 110 -11 81 -15 -50
-2 -239 22 -339 11 -47 40 -148 65 -225 58 -187 63 -220 35 -279 -20 -43 -46
-75 -54 -66 -1 2 -28 85 -60 184 -63 199 -74 229 -75 204 -1 -19 60 -242 88
-323 12 -33 21 -78 21 -100 l-1 -41 -13 30 -13 30 -5 -41 c-7 -52 -30 -98 -73
-149 l-34 -40 14 42 c11 31 12 53 6 80 l-9 38 -1 -41 c-2 -78 -27 -135 -92
-208 -34 -39 -59 -61 -56 -50 18 56 47 244 56 354 13 171 24 426 18 420 -3 -3
-12 -97 -21 -210 -23 -290 -38 -425 -46 -409 -18 35 -82 320 -105 464 -40 260
-48 375 -36 504 10 103 9 133 -3 120 -13 -14 -24 -246 -15 -342 15 -178 57
-434 95 -588 42 -169 47 -244 20 -313 l-20 -49 -12 49 c-7 27 -24 87 -39 134
-37 122 -74 316 -82 433 -7 102 -7 102 -15 47 -15 -96 19 -292 87 -511 44
-138 44 -168 5 -211 l-29 -33 -1 45 c0 25 -7 86 -15 135 -8 50 -15 117 -16
150 -1 33 -5 74 -10 90 -8 29 -4 -181 6 -305 4 -48 3 -50 -5 -20 -5 19 -12 80
-15 135 -5 77 -14 121 -40 195 -19 52 -41 118 -49 145 l-15 50 5 -45 c3 -25
21 -91 40 -148 26 -78 34 -119 34 -174 l0 -73 -41 70 c-100 171 -161 372 -163
540 0 61 2 130 6 155 l7 45 -16 -45 c-26 -75 -21 -226 10 -352 31 -126 76
-247 125 -338 31 -59 32 -62 8 -35 -15 17 -65 87 -112 158 -46 70 -87 127 -90
127 -13 0 78 -150 153 -253 96 -130 120 -175 128 -237 l5 -45 -16 35 c-17 38
-96 125 -129 142 -11 6 1 -12 26 -38 49 -51 75 -92 65 -102 -10 -10 -116 70
-162 122 -50 57 -141 227 -174 326 -34 101 -26 153 73 450 46 140 110 309 141
374 31 66 54 121 52 123 -6 7 -116 -192 -144 -260 -14 -34 -38 -102 -53 -152
-15 -49 -46 -143 -69 -208 -63 -178 -63 -218 -6 -447 71 -287 72 -385 2 -535
-38 -80 -127 -209 -192 -275 -48 -50 -59 -90 -24 -90 18 0 86 38 380 212 141
83 238 103 397 82 145 -19 162 -18 313 11 174 34 288 73 445 150 231 115 438
250 613 403 123 107 484 511 540 605 68 113 355 847 338 864 -2 2 -19 -40 -36
-94 -62 -187 -248 -634 -302 -727 -43 -73 -125 -173 -252 -306 -131 -138 -191
-189 -262 -224 -30 -15 -54 -29 -54 -31 0 -2 20 2 45 9 25 8 45 11 45 8 0 -19
-282 -244 -400 -320 -133 -86 -374 -207 -490 -246 -104 -35 -253 -66 -315 -66
-18 0 -86 9 -151 21 -66 11 -140 19 -167 16 -61 -5 -51 8 40 54 62 31 74 34
158 34 54 -1 99 -6 113 -14 13 -7 26 -10 29 -8 9 10 -37 28 -105 41 l-67 12
40 12 c22 7 67 12 100 12 54 -1 81 -7 150 -36 18 -7 18 -6 6 9 -19 23 -104 47
-169 47 -118 0 -277 -64 -457 -186 -106 -71 -283 -182 -325 -204 -47 -23 -6 7
165 125 271 187 494 289 675 309 19 2 -8 3 -60 2 -94 -2 -94 -2 -60 13 29 13
88 16 360 17 293 1 333 4 407 22 70 18 133 45 133 58 0 1 -16 -4 -35 -12 -88
-36 -170 -44 -470 -44 -185 0 -296 4 -300 10 -4 6 6 10 22 11 15 0 43 6 62 13
l34 12 -51 0 c-28 0 -49 -3 -46 -8 3 -4 -7 -8 -23 -8 l-28 1 34 31 35 31 216
-6 c252 -6 329 1 433 42 77 31 283 151 259 151 -8 0 -54 -24 -103 -54 -50 -30
-129 -69 -177 -87 l-87 -33 -250 -2 c-291 -3 -271 10 29 20 110 3 202 8 204
11 3 3 -106 5 -241 5 -136 0 -247 4 -247 8 0 4 24 20 53 35 44 23 38 28 -13 9
-13 -5 -13 -3 -1 11 19 24 90 42 271 71 180 29 240 48 365 115 50 27 137 68
194 91 135 53 180 77 288 149 106 71 164 132 227 239 25 42 77 115 116 162
168 201 228 325 380 785 34 105 82 244 107 310 95 257 116 407 95 705 -11 166
-3 271 23 300 10 11 33 22 52 26 68 13 20 59 -92 88 -77 21 -463 21 -573 1z
m369 -51 c-199 -62 -441 -252 -618 -484 -143 -188 -323 -519 -471 -862 -58
-134 -60 -137 -66 -100 -31 189 30 473 159 737 68 138 120 213 234 329 91 93
85 102 -11 16 -160 -143 -314 -435 -386 -730 -21 -89 -26 -131 -27 -280 -3
-208 -6 -244 -15 -170 l-7 55 -1 -67 c-2 -50 -9 -81 -31 -127 l-28 -60 -7 67
c-4 37 -18 137 -32 222 -22 129 -25 174 -20 270 7 150 42 284 107 412 11 22
16 38 11 34 -14 -9 -68 -125 -91 -196 -57 -176 -65 -325 -30 -530 14 -80 22
-172 23 -255 1 -147 5 -136 -119 -345 -46 -79 -55 -89 -59 -69 -44 197 -65
537 -48 777 17 235 45 350 116 476 45 79 86 134 231 307 286 340 576 504 1010
569 66 10 143 18 170 18 l50 0 -44 -14z m125 5 c-66 -11 -236 -94 -349 -171
-103 -70 -282 -244 -369 -359 -31 -41 -86 -122 -123 -179 -67 -108 -223 -413
-246 -485 -16 -50 -30 -68 -23 -29 6 31 70 188 111 269 36 70 169 301 206 355
58 87 182 236 257 310 148 147 426 300 540 298 l45 0 -49 -9z m84 -29 c13 -8
12 -10 -2 -10 -10 0 -37 -17 -60 -37 -25 -23 -39 -31 -35 -20 4 11 3 16 -4 12
-5 -4 -7 -16 -3 -27 3 -11 2 -18 -3 -15 -11 7 -12 -2 -17 -138 l-4 -110 8 95
c8 107 30 161 80 204 40 33 53 33 38 -1 -9 -20 -11 -83 -8 -213 8 -358 5 -447
-20 -550 -29 -124 -279 -844 -340 -982 -53 -119 -126 -234 -225 -352 -36 -44
-85 -111 -107 -150 -86 -148 -228 -256 -483 -367 -71 -31 -173 -77 -225 -102
-130 -62 -193 -82 -358 -112 -78 -14 -153 -30 -168 -35 -50 -19 -34 -4 35 33
37 20 113 53 167 72 101 37 307 135 299 143 -2 3 -48 -16 -102 -41 -54 -26
-159 -69 -233 -96 -74 -27 -143 -52 -153 -56 -22 -9 28 74 108 182 68 92 112
113 345 164 283 62 428 116 511 191 l34 30 -35 -21 c-137 -84 -207 -108 -505
-176 -109 -24 -223 -56 -254 -70 -49 -23 -54 -24 -36 -6 11 11 45 34 75 51 41
23 47 29 25 24 -16 -4 -43 -13 -59 -21 l-29 -15 38 69 c101 181 168 227 415
279 63 14 142 32 175 40 63 16 279 103 272 110 -2 2 -52 -14 -112 -37 -65 -24
-178 -55 -279 -76 -186 -38 -272 -63 -326 -96 l-34 -21 33 59 c75 132 108 156
361 250 304 113 462 207 606 357 115 121 206 277 293 502 35 93 25 90 -14 -4
-94 -224 -201 -396 -313 -502 -150 -140 -304 -227 -582 -328 -80 -29 -173 -68
-207 -87 -35 -19 -63 -32 -63 -29 0 11 102 190 126 222 37 50 111 99 270 180
81 41 183 100 227 132 154 110 312 302 341 412 4 14 -9 -6 -28 -43 -98 -191
-278 -347 -556 -479 -79 -38 -166 -85 -192 -105 l-48 -35 45 98 c61 131 79
158 133 201 26 20 52 41 57 46 17 16 -59 -24 -79 -42 -19 -16 -19 -16 0 18 20
35 47 55 221 160 163 99 298 206 434 341 111 110 131 135 167 210 22 47 43 96
46 110 l6 25 -11 -25 c-68 -150 -72 -155 -183 -265 -132 -130 -276 -248 -412
-337 -103 -67 -234 -141 -234 -132 0 12 94 233 118 278 38 69 305 292 446 370
148 83 196 122 228 186 16 30 30 71 33 90 5 35 5 35 -8 -5 -38 -113 -77 -148
-296 -270 -182 -101 -315 -187 -331 -214 -5 -9 -10 -12 -10 -8 -1 29 155 291
246 413 78 106 280 305 382 378 161 114 288 161 342 126z m-805 -828 c-33 -30
-175 -132 -175 -126 0 4 8 13 18 21 67 53 196 139 157 105z m-1071 -1749 c-36
-63 -163 -240 -234 -328 -72 -89 -153 -173 -305 -316 -116 -111 -115 -110 39
50 170 176 253 276 414 499 57 78 106 142 109 142 3 0 -8 -21 -23 -47z m-939
-503 c43 -58 117 -129 178 -169 43 -29 47 -35 47 -71 0 -37 -5 -44 -61 -88
-65 -50 -409 -275 -409 -266 0 2 24 39 54 82 122 176 152 278 134 457 -6 55
-14 105 -18 110 -4 6 -10 28 -14 50 -4 22 -9 49 -12 60 -3 11 12 -11 32 -50
20 -38 51 -90 69 -115z m565 -63 c0 -1 -26 -27 -57 -57 l-58 -55 55 58 c50 53
60 62 60 54z m-10 -340 c62 -10 80 -16 66 -22 -11 -5 -62 -2 -120 6 -56 8
-147 14 -203 14 -108 0 -109 11 -3 24 56 6 106 2 260 -22z"/>
<path d="M3025 4039 c-4 -6 -5 -12 -2 -15 2 -3 7 2 10 11 7 17 1 20 -8 4z"/>
<path d="M2987 3933 c-14 -43 -27 -94 -30 -113 l-6 -35 11 35 c39 122 57 185
53 188 -2 2 -15 -31 -28 -75z"/>
<path d="M3730 4344 c-79 -53 -152 -148 -190 -250 -17 -44 -4 -25 34 49 39 77
96 143 159 185 20 13 37 26 37 28 0 8 -17 3 -40 -12z"/>
<path d="M3943 4115 c0 -27 2 -38 4 -22 2 15 2 37 0 50 -2 12 -4 0 -4 -28z"/>
<path d="M3791 4074 c0 -11 3 -14 6 -6 3 7 2 16 -1 19 -3 4 -6 -2 -5 -13z"/>
<path d="M3766 3994 c-10 -31 -16 -58 -14 -60 3 -2 12 21 22 52 10 31 16 58
14 60 -3 2 -12 -21 -22 -52z"/>
<path d="M3952 4030 c0 -14 2 -19 5 -12 2 6 2 18 0 25 -3 6 -5 1 -5 -13z"/>
<path d="M3983 3900 c0 -25 2 -35 4 -22 2 12 2 32 0 45 -2 12 -4 2 -4 -23z"/>
<path d="M3971 3838 c-2 -43 -48 -136 -102 -208 -68 -89 -80 -119 -17 -38 82
103 138 217 124 251 -2 7 -5 4 -5 -5z"/>
<path d="M3833 3298 c-45 -49 -179 -227 -229 -303 -66 -102 -107 -186 -174
-355 -47 -119 -60 -141 -105 -185 -62 -61 -228 -161 -356 -216 -52 -23 -177
-63 -279 -90 -189 -51 -297 -86 -305 -99 -3 -5 16 -2 43 6 26 8 131 37 234 64
267 71 406 130 583 250 112 76 144 117 199 260 89 228 144 324 329 573 85 115
101 140 60 95z"/>
<path d="M2595 2381 c-49 -28 -95 -66 -95 -78 0 -3 10 2 23 11 12 8 49 34 82
56 69 46 63 53 -10 11z"/>
<path d="M2550 1883 c-19 -8 -75 -24 -124 -34 -48 -10 -91 -21 -95 -24 -3 -4
5 -4 19 -1 14 3 47 8 74 11 52 7 215 64 181 64 -11 -1 -36 -8 -55 -16z"/>
<path d="M2431 3899 c-43 -17 -115 -76 -153 -126 -151 -195 -169 -237 -26 -60
70 86 131 144 194 184 23 14 17 15 -15 2z"/>
<path d="M2191 3518 c-30 -102 -183 -350 -299 -483 -37 -42 -86 -100 -109
-129 -44 -52 -105 -161 -117 -206 -4 -14 12 11 36 55 54 100 77 133 157 220
91 99 159 192 240 328 62 106 121 241 109 253 -3 2 -10 -15 -17 -38z"/>
<path d="M4001 3314 c0 -11 3 -14 6 -6 3 7 2 16 -1 19 -3 4 -6 -2 -5 -13z"/>
<path d="M3991 3264 c0 -11 3 -14 6 -6 3 7 2 16 -1 19 -3 4 -6 -2 -5 -13z"/>
<path d="M3981 3224 c0 -11 3 -14 6 -6 3 7 2 16 -1 19 -3 4 -6 -2 -5 -13z"/>
<path d="M1872 2888 c-30 -119 -62 -363 -62 -470 0 -80 7 -125 57 -320 31
-126 60 -228 64 -228 4 0 1 26 -7 58 -84 349 -94 401 -94 498 0 113 22 304 50
444 11 52 18 96 16 97 -2 2 -13 -34 -24 -79z"/>
<path d="M3592 2368 c-23 -73 -40 -134 -37 -136 2 -2 22 55 45 128 23 73 40
134 37 136 -2 2 -22 -55 -45 -128z"/>
<path d="M2211 2340 c-1 -26 33 -110 44 -110 3 0 3 5 -1 12 -4 6 -15 36 -25
67 -11 35 -18 47 -18 31z"/>
<path d="M1501 2228 c-16 -49 -31 -165 -30 -233 1 -47 4 -33 15 63 7 68 18
139 23 159 13 47 7 55 -8 11z"/>
<path d="M3536 2203 c-6 -14 -5 -15 5 -6 7 7 10 15 7 18 -3 3 -9 -2 -12 -12z"/>
<path d="M1753 1524 c-17 -56 -16 -75 3 -41 8 15 14 40 12 55 -3 24 -4 23 -15
-14z"/>
<path d="M2635 1399 c-22 -10 -35 -19 -29 -19 15 0 84 29 84 35 0 8 -13 4 -55
-16z"/>
<path d="M1980 1277 c0 -3 42 -12 93 -21 68 -12 100 -14 122 -6 l30 10 -29 -4
c-28 -4 -97 4 -178 19 -21 4 -38 5 -38 2z"/>
</g>
</svg>